<?xml version="1.0" encoding="UTF-8" standalone="no"?>
<svg
   xmlns:dc="http://purl.org/dc/elements/1.1/"
   xmlns:cc="http://creativecommons.org/ns#"
   xmlns:rdf="http://www.w3.org/1999/02/22-rdf-syntax-ns#"
   xmlns:svg="http://www.w3.org/2000/svg"
   xmlns="http://www.w3.org/2000/svg"
   id="svg2"
   preserveAspectRatio="xMidYMid meet"
   viewBox="0 0 1280.000000 1279.000000"
   height="1279.000000pt"
   width="1280.000000pt"
   version="1.0">
  <defs
     id="defs12" />
  <metadata
     id="metadata4">
Created by potrace 1.15, written by Peter Selinger 2001-2017
<rdf:RDF>
  <cc:Work
     rdf:about="">
    <dc:format>image/svg+xml</dc:format>
    <dc:type
       rdf:resource="http://purl.org/dc/dcmitype/StillImage" />
    <dc:title></dc:title>
  </cc:Work>
</rdf:RDF>
</metadata>
  <g
     id="g6"
     stroke="none"
     fill="#3f51b5"
     transform="translate(0.000000,1279.000000) scale(0.100000,-0.100000)">
    <path
       id="path8"
       d="m 8636,10533.835 c -457.8058,17.398 -106,21.165 -3071,21.165 -2802,0 -2752,1 -3000,-41 -459,-77 -928,-287 -1295,-580 C 1161,9847 973,9659 886,9550 603,9194 439,8823 362,8356 c -15,-92 -17,-344 -20,-2916 -2,-1836 1,-2860 7,-2945 25,-324 101,-600 242,-885 142,-287 310,-512 549,-735 341,-320 791,-554 1270,-663 317,-72 63,-67 3145,-67 l 2770,0 140,22 c 929,149 1667,670 2050,1448 110,224 177,434 222,702 17,103 18,248 18,3023 0,3096 2,2959 -46,3185 -254.099,1229.3023 -1005.7124,1884.206 -2073,2008.835 z M 9648.835,8432 C 9667.233,8190.3981 9671,8446 9668,5305 l -3,-2850 -27,-100 c -16,-55 -38,-125 -50,-155 -149,-378 -465,-686 -866,-845 -191,-75 -349,-110 -567,-125 -190,-13 -5023,-13 -5213,0 -243,17 -443,67 -649,165 -447,212 -744,571 -840,1018 -17,77 -18,244 -18,2932 0,2702 1,2854 18,2935 38,180 100,328 203,482 254,382 708,644 1209,697 44,5 1275,8 2735,7 l 2655,-2 c 771.7553,-73.6875 1158.3436,-383.7083 1393.835,-1032 z" />
  </g>
</svg>
