<?xml version="1.0" encoding="UTF-8" standalone="no"?>
<svg
   xmlns:dc="http://purl.org/dc/elements/1.1/"
   xmlns:cc="http://creativecommons.org/ns#"
   xmlns:rdf="http://www.w3.org/1999/02/22-rdf-syntax-ns#"
   xmlns:svg="http://www.w3.org/2000/svg"
   xmlns="http://www.w3.org/2000/svg"
   id="svg2"
   preserveAspectRatio="xMidYMid meet"
   viewBox="0 0 1280.000000 1279.000000"
   height="1279.000000pt"
   width="1280.000000pt"
   version="1.0">
  <defs
     id="defs12" />
  <metadata
     id="metadata4">
Created by potrace 1.15, written by Peter Selinger 2001-2017
<rdf:RDF>
  <cc:Work
     rdf:about="">
    <dc:format>image/svg+xml</dc:format>
    <dc:type
       rdf:resource="http://purl.org/dc/dcmitype/StillImage" />
    <dc:title></dc:title>
  </cc:Work>
</rdf:RDF>
</metadata>
  <g
     style="fill:#f40000;fill-opacity:1"
     fill="#3f51b5"
     stroke="none"
     id="g6"
     transform="translate(0.000000,1279.000000) scale(0.100000,-0.100000)">
    <path
       style="fill:#f40000;fill-opacity:1"
       id="path8"
       d="m 10520,10533 c -130,-80 -540,-352 -662,-439 l -118,-85 -118,78 c -288,191 -648,340 -986,408 -318,64 -106,60 -3071,60 -2802,0 -2752,1 -3000,-41 -459,-77 -928,-287 -1295,-580 C 1161,9847 973,9659 886,9550 603,9194 439,8823 362,8356 c -15,-92 -17,-344 -20,-2916 -2,-1836 1,-2860 7,-2945 25,-324 101,-600 242,-885 142,-287 310,-512 549,-735 341,-320 791,-554 1270,-663 317,-72 63,-67 3145,-67 l 2770,0 140,22 c 929,149 1667,670 2050,1448 110,224 177,434 222,702 17,103 18,248 18,3023 0,3096 2,2959 -46,3185 -77,364 -250,723 -497,1032 -79,100 -90,116 -74,111 8,-3 353,357 449,469 94,109 115,163 63,163 -41,0 -331,-164 -405,-229 -96,-85 -53,-37 171,187 l 251,251 -29,36 c -16,19 -33,35 -36,34 -4,0 -41,-21 -82,-46 z M 8365,9442 c 61,-12 149,-33 196,-46 96,-29 259,-94 259,-105 0,-4 -82,-78 -182,-166 C 7319,7971 6076,6266 4594,4790 3272,3328 962,769 924,712 -290.5062,-149.3029 2100.704,854.99384 1013,591 1034.5786,489.13575 874.79389,268.23926 911,171 c 1748.5968,1009.3716 2358.908,2180.3875 3781,3420 1110.291,1122.9345 1228.7098,1271.2877 1963,2099 1074,1276 1564,1817 2618,3018 64,74 105,128 101,135 -4,7 3,3 15,-8 59,-52 172,-258 221,-403 65,-195 61,14 58,-3127 l -3,-2850 -27,-100 c -16,-55 -38,-125 -50,-155 -149,-378 -465,-686 -866,-845 -191,-75 -349,-110 -567,-125 -190,-13 -5023,-13 -5213,0 -243,17 -443,67 -649,165 -447,212 -744,571 -840,1018 -17,77 -18,244 -18,2932 0,2702 1,2854 18,2935 38,180 100,328 203,482 254,382 708,644 1209,697 44,5 1275,8 2735,7 l 2655,-2 z" />
  </g>
</svg>
